<?xml version="1.0" standalone="no"?>
<!DOCTYPE svg PUBLIC "-//W3C//DTD SVG 20010904//EN"
 "http://www.w3.org/TR/2001/REC-SVG-20010904/DTD/svg10.dtd">
<svg version="1.0" xmlns="http://www.w3.org/2000/svg"
 width="1200.000000pt" height="1123.000000pt" viewBox="0 0 1200.000000 1123.000000"
 preserveAspectRatio="xMidYMid meet">

<g transform="translate(0.000000,1123.000000) scale(0.100000,-0.100000)"
fill="#000000" stroke="none">
<path d="M0 5615 l0 -5615 2717 0 2716 0 -7 408 c-3 224 -12 578 -19 787 -6
209 -12 515 -12 680 0 277 2 307 23 388 31 124 29 156 -13 211 -34 45 -35 49
-42 162 -3 69 -2 115 3 113 264 -112 468 -159 694 -159 53 0 123 5 156 10 182
32 419 140 675 308 86 56 161 102 166 102 33 0 109 -197 139 -360 27 -143 25
-485 -5 -740 -50 -436 -230 -1704 -267 -1883 -5 -25 -4 -27 30 -27 29 0 37 4
41 23 8 35 110 712 159 1062 126 891 153 1208 125 1463 -32 296 -133 539 -225
542 -6 0 -85 -48 -175 -107 -268 -176 -496 -281 -673 -313 -193 -33 -481 9
-728 108 l-118 47 6 35 c8 49 102 330 115 347 6 7 17 13 23 13 7 0 56 -51 108
-112 150 -175 144 -171 172 -143 14 14 12 42 -3 55 -3 3 -46 52 -95 110 -49
58 -98 115 -109 127 -20 22 -20 22 6 80 22 51 38 103 61 206 6 27 7 27 35 13
34 -18 41 -33 41 -91 0 -63 34 -99 117 -125 124 -38 218 -21 318 59 63 51 265
271 286 313 36 70 29 90 -68 215 -38 49 -59 83 -50 83 24 0 133 -76 160 -112
41 -53 66 -120 73 -190 4 -34 13 -75 20 -89 11 -22 9 -41 -11 -135 -29 -132
-30 -151 -7 -163 32 -17 44 4 68 115 13 59 25 109 27 110 2 2 32 -6 67 -17 88
-27 423 -111 592 -148 273 -60 559 -100 704 -101 338 -1 848 248 1253 611 247
222 341 401 402 764 6 39 15 74 19 78 9 10 300 -31 314 -44 18 -16 -38 -241
-111 -444 -38 -105 -199 -430 -297 -600 -170 -294 -294 -441 -449 -534 -110
-66 -324 -169 -447 -214 -238 -88 -349 -102 -796 -94 -373 6 -373 6 -408 -66
-15 -33 -16 -55 -6 -224 25 -469 5 -814 -90 -1508 -55 -395 -96 -598 -181
-891 -16 -56 -29 -105 -29 -108 0 -3 1082 -6 2405 -6 l2405 0 0 5615 0 5615
-6000 0 -6000 0 0 -5615z m4260 5104 c374 -34 574 -118 765 -322 63 -67 88
-87 116 -92 58 -11 99 14 165 96 78 100 186 206 258 253 53 35 192 93 202 84
2 -2 -66 -54 -150 -116 -157 -114 -186 -146 -186 -207 0 -65 63 -125 132 -125
21 0 100 20 175 44 335 107 592 165 763 172 l115 4 -118 -39 c-66 -22 -129
-49 -143 -62 -53 -50 -50 -145 6 -193 35 -29 62 -33 265 -41 550 -21 871 -61
1089 -135 275 -92 430 -164 595 -274 94 -63 221 -179 209 -192 -4 -3 -139 12
-301 35 -161 23 -307 41 -323 41 -89 0 -152 -107 -110 -188 24 -46 47 -59 173
-101 318 -104 509 -240 581 -413 51 -121 97 -298 78 -298 -2 0 -104 50 -228
110 -241 117 -268 125 -325 90 -43 -26 -64 -61 -65 -108 0 -48 8 -64 85 -160
186 -230 272 -428 265 -602 l-3 -67 -180 134 c-99 73 -196 139 -217 145 -31 9
-43 8 -80 -10 -85 -42 -98 -108 -44 -230 40 -92 88 -223 83 -228 -2 -2 -53 34
-113 81 -60 46 -121 87 -137 91 -71 15 -137 -25 -158 -96 -12 -40 -6 -63 50
-193 2 -5 -12 -6 -30 -2 -43 7 -96 -19 -124 -60 -11 -17 -38 -103 -59 -192
-51 -209 -50 -213 94 -316 24 -17 24 -17 -15 -1 -22 9 -77 18 -122 21 -103 7
-144 -6 -267 -89 l-89 -59 6 31 c4 17 10 72 13 123 5 76 4 95 -8 105 -20 16
-47 5 -52 -22 -3 -11 -12 -79 -20 -151 -9 -71 -21 -145 -28 -162 -11 -28 -10
-35 4 -50 22 -22 39 -13 148 78 47 38 113 84 147 101 57 28 69 30 136 26 47
-3 90 -13 118 -26 48 -23 219 -168 245 -206 20 -31 22 -152 4 -226 -14 -58
-102 -275 -151 -373 -16 -32 -46 -76 -67 -99 l-37 -41 0 -136 c0 -95 -4 -143
-13 -159 -23 -41 -96 -65 -203 -70 l-97 -4 -7 128 c-10 170 4 273 51 369 40
83 54 167 34 215 -7 17 -30 46 -51 64 -21 18 -45 45 -54 62 -21 41 -19 106 5
136 27 35 108 68 185 75 64 6 65 6 98 -29 18 -20 46 -61 62 -92 22 -44 33 -56
52 -56 13 0 26 7 30 15 14 39 -69 178 -130 216 -27 17 -44 20 -113 16 -186
-10 -302 -115 -273 -245 13 -61 30 -89 83 -144 54 -54 57 -78 24 -165 l-21
-57 -17 84 c-23 114 -40 150 -97 211 -59 63 -249 191 -278 187 -13 -2 -21 -12
-23 -29 -3 -22 6 -31 60 -64 85 -52 168 -116 206 -159 54 -62 76 -172 87 -441
4 -88 10 -198 14 -245 5 -70 3 -90 -11 -115 -9 -16 -33 -102 -52 -191 -48
-217 -98 -369 -158 -487 -47 -91 -59 -106 -173 -211 -68 -63 -210 -188 -317
-279 -106 -91 -198 -174 -204 -184 -6 -10 -15 -33 -18 -50 -7 -30 3 -45 133
-215 77 -101 141 -190 141 -199 0 -23 -226 -264 -289 -307 -47 -32 -60 -37
-110 -36 -31 1 -72 8 -92 17 -35 14 -37 18 -41 71 -4 49 -10 62 -43 96 -21 22
-58 47 -81 57 -29 12 -45 26 -49 41 -8 31 -83 106 -132 131 -81 41 -161 55
-303 54 -111 0 -153 -5 -235 -26 -133 -35 -298 -118 -508 -256 -228 -149 -300
-175 -492 -175 -98 -1 -116 2 -166 26 -83 38 -94 72 -94 288 0 181 28 400 50
400 7 0 29 -7 49 -15 53 -22 83 -4 76 45 -3 20 9 14 -156 81 -158 65 -234 109
-283 165 -53 60 -53 128 0 189 l31 35 61 -56 c34 -30 82 -69 107 -86 44 -29
47 -30 120 -22 41 4 105 8 142 8 82 1 110 -16 153 -96 62 -115 120 -148 272
-157 144 -8 172 -1 276 69 63 43 98 60 121 60 18 0 97 -20 175 -45 183 -58
223 -59 309 -8 35 21 141 98 235 171 248 193 305 232 341 232 17 0 83 -16 146
-36 86 -27 134 -37 190 -38 69 -1 80 2 135 34 76 44 280 246 369 365 152 203
182 329 193 806 l6 246 -26 56 c-32 70 -72 130 -155 230 -74 89 -138 142 -193
158 -32 10 -43 9 -84 -11 -66 -32 -154 -117 -241 -232 -94 -126 -122 -181
-184 -368 -58 -178 -79 -216 -173 -316 -169 -181 -304 -244 -521 -244 -118 0
-111 3 -272 -126 -125 -100 -194 -144 -286 -183 -55 -23 -76 -26 -168 -25
-129 0 -164 13 -349 124 -166 99 -248 127 -431 146 -52 5 -74 13 -112 41 -100
73 -202 211 -210 283 -3 24 0 25 63 31 197 20 277 151 369 606 l33 162 51 -20
c28 -11 80 -34 116 -52 52 -25 78 -32 128 -32 34 0 62 -1 62 -2 0 -2 -18 -32
-40 -68 -52 -85 -123 -227 -160 -319 -41 -104 -92 -290 -98 -356 -8 -96 49
-160 142 -160 55 0 93 18 150 70 53 49 120 88 267 155 66 30 168 86 227 124
192 123 309 174 442 190 204 26 310 112 310 251 0 29 -5 70 -11 89 -6 20 -14
48 -18 62 l-8 25 48 -12 c86 -23 283 -27 398 -10 143 22 253 53 303 86 283
182 327 220 394 341 124 225 171 443 129 604 -26 100 -72 169 -168 253 l-38
32 63 2 c160 4 259 -10 373 -55 82 -32 122 -39 148 -25 50 26 50 76 1 148 -27
40 -32 51 -18 46 55 -22 122 -29 152 -17 36 15 57 59 47 98 -10 44 -63 120
-113 162 l-45 39 48 -10 c61 -13 116 2 145 39 32 42 23 73 -33 108 -194 123
-178 116 -294 127 -60 5 -109 11 -111 12 -1 2 36 13 82 25 46 12 91 30 100 40
22 24 20 54 -4 76 -19 17 -38 19 -168 18 -175 -1 -295 -22 -475 -83 -162 -55
-250 -98 -322 -160 -33 -27 -112 -92 -175 -144 -139 -114 -163 -139 -274 -286
-47 -63 -122 -162 -166 -219 -44 -58 -91 -130 -106 -160 -45 -97 -97 -139
-222 -177 -51 -16 -86 -34 -109 -56 l-33 -32 0 36 c0 43 -37 92 -75 102 -39
10 -42 59 -11 195 42 183 41 209 -5 331 -54 143 -90 199 -187 290 -105 99
-178 148 -376 250 -142 74 -171 86 -273 106 -62 13 -142 26 -177 30 -56 6 -66
4 -85 -15 -27 -27 -27 -62 2 -88 12 -12 56 -38 97 -59 l75 -39 -100 -6 c-114
-7 -142 -16 -202 -65 -66 -54 -51 -114 31 -129 l35 -7 -74 -49 c-92 -62 -128
-103 -123 -140 l4 -27 -125 -4 c-149 -5 -199 -20 -432 -128 -84 -38 -154 -68
-156 -67 -1 2 33 75 76 163 72 145 88 169 174 264 122 134 296 293 577 527 80
66 151 127 159 136 23 28 25 98 3 136 -21 39 -73 71 -114 71 -15 0 -209 -75
-430 -166 -222 -91 -413 -170 -426 -175 -21 -8 -21 -6 10 39 18 26 59 76 93
112 33 36 118 132 188 213 71 81 159 172 196 202 78 63 197 122 396 195 176
64 182 67 205 106 43 69 13 161 -63 188 -29 10 -121 18 -302 26 -143 7 -303
14 -356 17 -70 4 -114 1 -161 -11 -35 -9 -84 -16 -109 -16 l-44 1 51 48 c183
170 581 339 1109 471 90 22 166 47 177 57 70 63 59 176 -21 218 -21 11 -133
24 -387 45 -196 16 -359 32 -362 35 -7 6 106 57 190 84 36 12 95 26 130 30 74
9 285 5 448 -10z m-2680 -192 c76 -40 107 -130 80 -229 -24 -86 -121 -168
-198 -168 -91 0 -192 109 -192 206 0 76 55 153 135 190 64 30 120 30 175 1z
m-187 -678 c50 -13 113 -71 128 -116 6 -19 9 -64 7 -99 -7 -112 -82 -186 -188
-186 -63 1 -126 29 -166 75 -82 93 -38 229 101 308 56 32 64 33 118 18z m484
-561 c61 -37 132 -152 148 -239 24 -133 -97 -230 -269 -216 -89 8 -149 43
-184 107 -66 123 25 320 168 365 52 16 91 11 137 -17z m-609 -194 c117 -58
183 -204 152 -335 -18 -74 -85 -141 -158 -159 -137 -32 -279 45 -317 174 -66
222 130 416 323 320z m340 -658 c75 -80 84 -112 48 -165 -53 -76 -146 -101
-231 -62 -89 41 -105 101 -53 201 38 73 62 90 129 90 45 0 50 -3 107 -64z
m-531 -31 c117 -35 171 -172 102 -259 -48 -61 -166 -91 -242 -62 -52 20 -77
57 -84 129 -4 43 -1 58 19 86 24 36 125 120 144 121 6 0 33 -7 61 -15z m3226
-98 c193 -98 265 -146 362 -238 77 -74 116 -136 159 -257 32 -90 32 -111 2
-237 -13 -55 -27 -119 -31 -143 l-7 -42 -81 57 c-45 31 -134 96 -198 144 -131
99 -189 130 -342 184 -67 23 -141 59 -195 93 -48 31 -118 72 -157 93 l-70 38
45 20 c25 11 55 21 67 21 27 0 63 45 63 79 0 35 -26 70 -62 86 -27 11 -21 12
71 18 145 8 196 43 189 130 -3 25 1 37 10 37 7 0 86 -37 175 -83z m2374 55
c-29 -30 -35 -73 -14 -90 6 -5 100 -17 207 -27 153 -13 202 -21 225 -36 l30
-19 -41 0 c-85 0 -124 -28 -124 -88 0 -39 21 -63 99 -115 36 -23 75 -56 88
-74 l24 -31 -47 14 c-105 31 -174 6 -174 -64 0 -20 9 -52 20 -69 11 -18 18
-33 16 -33 -2 0 -23 7 -47 16 -121 43 -276 54 -484 33 -96 -9 -131 -19 -270
-71 -88 -34 -232 -96 -320 -138 -164 -79 -370 -164 -385 -158 -17 6 22 66 155
239 218 282 229 294 356 396 66 54 144 117 172 141 55 46 103 71 228 121 84
33 250 80 288 81 l25 0 -27 -28z m3853 -551 c52 -18 118 -45 146 -62 84 -48
152 -135 126 -161 -14 -14 -32 -1 -32 22 0 68 -209 175 -392 201 -96 13 -190
2 -267 -32 -52 -23 -61 -24 -61 -4 0 8 13 21 30 30 108 56 293 58 450 6z
m-8922 -51 c67 -11 119 -39 166 -88 26 -28 27 -33 17 -64 -12 -35 -34 -63 -93
-114 -70 -61 -67 -44 -93 -495 -14 -228 -25 -420 -25 -426 0 -7 -8 -13 -19
-13 -40 0 -160 -71 -208 -124 -37 -40 -101 -143 -109 -173 0 -1 -33 9 -74 23
-41 15 -116 31 -167 37 l-93 11 0 489 0 489 -60 90 c-33 49 -60 95 -60 101 0
33 25 95 47 119 14 15 46 34 71 43 66 22 489 93 622 104 8 0 43 -4 78 -9z
m2557 -97 c129 -45 159 -63 340 -203 83 -64 179 -136 215 -160 36 -24 82 -59
104 -78 24 -22 45 -32 57 -29 11 3 19 0 19 -8 0 -18 -110 -183 -164 -246 -63
-73 -214 -260 -319 -395 -92 -119 -119 -138 -212 -151 -36 -5 -57 1 -141 40
-55 24 -116 50 -136 56 -52 17 -143 119 -185 208 -47 97 -60 189 -45 298 22
151 63 339 82 380 11 23 69 93 129 158 72 76 112 127 116 147 5 24 11 30 23
25 10 -4 62 -23 117 -42z m2317 -90 c70 -60 92 -88 123 -155 56 -125 37 -284
-60 -495 -74 -160 -120 -207 -329 -338 -158 -99 -238 -119 -481 -119 -196 0
-234 7 -307 53 -82 52 -205 242 -229 350 -21 98 20 278 74 330 32 29 1118 441
1137 431 8 -5 40 -30 72 -57z m-1378 -504 c-32 -152 -8 -289 76 -418 22 -34
40 -64 40 -67 0 -3 -16 -2 -35 2 -59 11 -117 -4 -183 -47 -129 -85 -316 -303
-310 -363 2 -16 10 -33 19 -39 31 -20 64 1 112 71 60 88 157 189 227 235 42
28 65 37 98 37 118 0 218 -104 236 -245 13 -97 -51 -147 -217 -170 -152 -22
-295 -82 -495 -212 -45 -29 -160 -91 -255 -137 -125 -62 -190 -100 -237 -140
-35 -31 -72 -56 -81 -56 -26 0 -51 30 -46 54 71 299 158 501 304 708 203 289
370 487 588 699 93 92 171 166 172 165 2 -1 -4 -36 -13 -77z m1377 -617 c87
-55 261 -283 275 -360 19 -99 -18 -701 -45 -750 -5 -10 -73 73 -211 255 -112
147 -248 326 -302 396 l-99 128 32 52 c68 111 188 244 259 286 19 12 37 21 41
21 3 0 25 -13 50 -28z m-5166 -384 c4 -29 16 -70 27 -91 22 -43 91 -92 156
-110 57 -15 58 -42 1 -50 -23 -3 -50 -14 -60 -24 -20 -19 -34 -84 -45 -195 -4
-53 -9 -68 -21 -68 -14 0 -15 13 -10 94 4 51 13 113 22 137 8 24 15 47 15 51
0 4 -34 -17 -75 -47 -146 -104 -223 -128 -415 -129 -148 -1 -241 10 -234 27 3
9 59 12 202 12 180 0 202 2 256 22 75 28 153 76 213 129 l47 40 -41 41 c-44
44 -73 114 -73 175 0 60 27 50 35 -14z m5060 -423 c158 -209 292 -386 297
-392 19 -24 -115 -206 -255 -348 l-128 -130 -15 30 c-8 17 -97 210 -198 430
l-183 400 18 26 c34 49 75 146 114 268 30 95 41 119 51 109 6 -7 141 -184 299
-393z m2990 164 c158 -82 595 -219 830 -260 103 -18 170 -23 320 -23 105 -1
216 2 248 7 l57 7 0 -159 0 -159 -86 -7 c-138 -12 -643 1 -784 19 -155 21
-327 59 -439 97 -99 34 -333 147 -374 181 l-28 23 87 158 c47 87 89 156 93
155 3 -2 38 -19 76 -39z m-3332 -647 c103 -225 187 -413 187 -419 0 -6 -14
-16 -30 -23 -40 -17 -99 -8 -239 35 -62 19 -131 35 -153 35 -38 0 -107 -28
-141 -58 -9 -8 -19 -13 -21 -11 -8 9 -145 602 -141 609 3 4 17 11 32 15 51 12
160 84 234 154 41 39 77 70 80 71 3 0 90 -184 192 -408z m-536 -163 c40 -167
72 -311 72 -319 0 -8 -41 -46 -91 -85 -273 -210 -326 -245 -368 -245 -11 0
-20 4 -20 10 0 5 -20 188 -45 407 l-46 398 28 23 c86 70 134 104 157 110 14 4
74 7 133 6 l107 0 73 -305z m-1600 211 c77 -18 195 -68 207 -88 3 -5 -37 -130
-88 -278 l-93 -269 -49 -7 c-168 -23 -153 -25 -221 27 -63 47 -173 160 -173
178 0 5 46 113 101 239 l102 230 66 -7 c36 -3 103 -15 148 -25z m-2542 -42
c21 -28 58 -73 83 -100 l45 -49 -17 -272 -17 -272 -56 -205 c-30 -113 -62
-215 -69 -227 -8 -12 -34 -36 -58 -52 -40 -28 -53 -31 -116 -31 l-71 0 -45 96
c-48 105 -59 156 -70 344 l-7 115 69 13 c99 18 215 75 268 132 49 53 84 134
93 220 7 71 -20 136 -74 178 -37 29 -63 70 -63 99 1 14 25 37 67 62 0 1 18
-22 38 -51z m-178 -64 c6 -18 -110 -64 -189 -74 -40 -5 -137 -10 -215 -10
-114 0 -143 3 -143 14 0 10 38 15 172 20 192 8 255 17 307 45 39 20 62 22 68
5z m3797 -336 c21 -189 41 -357 43 -375 l5 -32 -123 41 c-168 54 -200 52 -311
-25 -45 -31 -84 -55 -86 -53 -8 9 43 628 53 631 5 1 38 8 72 14 72 13 163 53
243 105 30 19 58 36 61 36 3 0 22 -154 43 -342z m-571 207 c23 -3 49 -8 57
-11 14 -3 13 -36 -7 -291 -12 -159 -22 -305 -22 -325 l-1 -38 -68 0 c-83 0
-161 22 -189 52 -11 13 -32 46 -46 74 -26 52 -80 107 -116 119 -21 6 -14 30
130 436 l30 85 95 -47 c52 -26 113 -50 137 -54z m-1443 -1191 c115 -99 114
-73 7 -234 -109 -163 -243 -345 -335 -455 -155 -185 -645 -697 -655 -685 -21
24 -207 301 -207 308 0 18 324 317 538 497 120 100 302 318 482 578 29 42 58
77 62 77 5 0 54 -39 108 -86z m2363 -814 c-34 -122 -34 -129 -31 -277 l4 -151
-27 -6 c-15 -3 -91 -43 -168 -90 -232 -138 -520 -256 -741 -303 -136 -29 -388
-24 -551 10 -246 52 -561 161 -824 286 -77 37 -149 72 -159 78 -18 10 -12 18
65 104 64 72 188 219 215 258 2 2 54 -26 116 -62 215 -125 395 -197 583 -233
212 -40 619 11 863 107 145 57 384 197 622 363 35 25 65 44 66 43 1 -1 -14
-58 -33 -127z"/>
<path d="M4805 10144 c-89 -21 -118 -31 -178 -62 -118 -61 -232 -208 -284
-369 -20 -61 -26 -99 -26 -178 -1 -159 44 -278 136 -360 63 -57 127 -80 265
-95 204 -23 335 2 485 91 131 78 212 175 248 297 15 52 29 57 145 49 80 -5 90
-8 189 -63 98 -55 105 -61 105 -89 0 -53 29 -148 63 -204 47 -78 144 -164 240
-213 75 -38 90 -42 174 -46 54 -3 113 1 140 8 55 13 170 69 217 105 l32 24 85
-68 c138 -111 164 -148 210 -304 12 -40 27 -78 34 -85 49 -52 112 148 103 325
-6 120 -33 171 -153 289 l-93 92 10 46 c7 36 6 64 -6 119 -44 197 -144 308
-346 383 -66 24 -89 28 -190 28 -65 0 -135 -6 -160 -13 -61 -18 -157 -66 -202
-102 l-37 -29 -116 57 c-147 72 -188 76 -340 38 -59 -14 -108 -25 -109 -23 -1
2 -21 36 -44 75 -67 114 -140 186 -239 235 l-85 42 -127 3 c-69 1 -135 0 -146
-3z m282 -389 c36 -24 43 -54 29 -124 -24 -118 -75 -155 -201 -147 -106 6
-218 32 -250 58 -23 18 -26 26 -20 57 17 89 61 129 176 159 46 12 98 23 114
24 46 5 125 -9 152 -27z m1463 -210 c19 -9 50 -31 68 -48 26 -25 32 -39 32
-72 0 -52 -16 -74 -62 -84 -42 -10 -190 3 -234 19 -47 18 -74 50 -74 87 0 59
26 93 90 117 29 11 146 -1 180 -19z"/>
<path d="M1450 10469 c-79 -33 -117 -96 -99 -163 22 -81 90 -121 155 -90 83
39 120 173 63 229 -28 29 -82 40 -119 24z"/>
<path d="M1282 9750 c-52 -37 -74 -70 -75 -114 -2 -86 108 -145 192 -101 54
27 78 123 46 185 -34 66 -97 78 -163 30z"/>
<path d="M1735 9224 c-63 -33 -101 -89 -111 -168 -13 -89 44 -148 145 -150 78
-1 124 10 155 39 52 48 26 168 -57 253 -46 47 -80 54 -132 26z"/>
<path d="M1098 9030 c-73 -40 -112 -133 -89 -217 25 -97 86 -143 188 -143 104
0 157 55 156 161 -2 150 -142 260 -255 199z"/>
<path d="M1463 8422 c-18 -12 -55 -101 -49 -118 7 -18 66 -44 100 -44 28 0 86
45 86 66 0 8 -19 35 -41 59 -40 43 -69 54 -96 37z"/>
<path d="M978 8305 c-27 -20 -50 -46 -53 -58 -8 -35 9 -81 36 -94 27 -14 89
-8 130 13 75 38 50 152 -37 170 -23 4 -39 -2 -76 -31z"/>
<path d="M1495 7654 c-38 -18 -106 -45 -150 -60 -73 -24 -89 -25 -185 -20 -58
3 -133 12 -166 19 -67 15 -94 9 -94 -22 0 -29 19 -39 120 -56 205 -36 297 -24
492 67 93 43 116 70 82 95 -22 16 -16 18 -99 -23z"/>
<path d="M3965 7445 c-19 -18 -25 -35 -25 -69 0 -83 30 -126 87 -126 29 0 44
8 79 44 36 35 44 50 44 80 0 82 -126 131 -185 71z m95 -74 c0 -13 -26 -32 -33
-24 -14 13 -6 33 13 33 11 0 20 -4 20 -9z"/>
<path d="M6104 7436 c-59 -28 -117 -96 -136 -160 -7 -23 -12 -86 -12 -141 -1
-89 2 -106 25 -150 34 -67 77 -95 144 -95 36 0 57 5 66 16 21 25 -1 49 -48 50
-57 2 -82 19 -105 72 -18 40 -20 58 -14 134 10 150 72 228 179 228 41 0 108
-38 125 -70 17 -33 10 -126 -11 -148 -16 -15 -17 -14 -17 10 0 42 -20 76 -55
93 -47 22 -70 19 -107 -14 -29 -25 -32 -34 -32 -85 -1 -53 2 -60 33 -88 31
-28 38 -30 96 -26 50 3 70 10 100 32 68 52 94 160 60 243 -22 52 -42 72 -100
99 -65 31 -125 31 -191 0z m113 -228 c4 -7 13 -27 19 -45 10 -27 9 -32 -7 -36
-42 -11 -78 50 -47 81 15 15 25 15 35 0z"/>
<path d="M6794 2598 c-66 -45 -110 -106 -125 -174 -23 -103 17 -186 108 -220
40 -16 46 -16 88 0 87 34 145 133 145 250 0 80 -23 124 -80 154 -59 29 -79 28
-136 -10z"/>
<path d="M6739 1747 c-69 -46 -102 -124 -103 -242 -1 -93 19 -159 63 -205 48
-51 94 -60 155 -30 90 43 149 161 150 300 1 97 -16 139 -74 177 -47 32 -143
32 -191 0z"/>
<path d="M6715 736 c-72 -32 -115 -114 -115 -220 0 -139 65 -246 148 -246 67
0 126 72 158 195 42 155 -13 286 -119 285 -23 -1 -55 -7 -72 -14z"/>
</g>
</svg>
